<svg xmlns="http://www.w3.org/2000/svg" width="25" height="25" viewBox="0 0 25 25" fill="none"><path d="M12.4 0C5.6 0 0 5.7 0 12.8 0 18.5 3.6 23.3 8.5 25 9.1 25.1 9.3 24.7 9.3 24.4 9.3 24.1 9.3 23 9.3 22 5.9 22.7 5.1 20.5 5.1 20.5 4.6 19 3.8 18.6 3.8 18.6 2.6 17.8 3.8 17.8 3.8 17.8 5.1 17.9 5.7 19.1 5.7 19.1 6.9 21.1 8.7 20.5 9.4 20.2 9.5 19.4 9.8 18.8 10.1 18.5 7.4 18.2 4.5 17.1 4.5 12.1 4.5 10.7 5 9.6 5.8 8.7 5.6 8.4 5.2 7.1 5.9 5.3 5.9 5.3 6.9 5 9.3 6.6 10.3 6.3 11.4 6.2 12.4 6.2 13.5 6.2 14.5 6.3 15.5 6.6 17.9 5 18.9 5.3 18.9 5.3 19.6 7.1 19.2 8.4 19 8.7 19.8 9.6 20.3 10.7 20.3 12.1 20.3 17.1 17.4 18.2 14.7 18.5 15.1 18.9 15.5 19.6 15.5 20.8 15.5 22.6 15.5 23.9 15.5 24.4 15.5 24.7 15.7 25.1 16.3 25 21.3 23.3 24.8 18.5 24.8 12.8 24.8 5.7 19.3 0 12.4 0Z" fill="#F44336"/></svg>
