<svg width="25" height="25" viewBox="0 0 25 25" fill="none" xmlns="http://www.w3.org/2000/svg">
<path d="M12.406 0C5.55363 0 0 5.73667 0 12.8149C0 18.4765 3.55461 23.2796 8.48552 24.974C9.10582 25.0917 9.33117 24.6962 9.33117 24.3583C9.33117 24.053 9.31905 23.0418 9.3142 21.9731C5.86378 22.7465 5.13444 20.4613 5.13444 20.4613C4.56987 18.9821 3.75815 18.5866 3.75815 18.5866C2.63143 17.7907 3.84296 17.8082 3.84296 17.8082C5.08841 17.8983 5.74505 19.1297 5.74505 19.1297C6.85239 21.087 8.65029 20.5214 9.3554 20.1935C9.46928 19.3675 9.78912 18.8019 10.1429 18.4815C7.38788 18.1586 4.49233 17.0573 4.49233 12.1466C4.49233 10.7475 4.97694 9.60367 5.76928 8.70763C5.64328 8.38225 5.21683 7.07823 5.89286 5.31368C5.89286 5.31368 6.93235 4.96828 9.30451 6.62771C10.2931 6.34238 11.3544 6.20221 12.4084 6.19721C13.4625 6.20221 14.5238 6.34488 15.5148 6.63021C17.8821 4.97078 18.924 5.31618 18.924 5.31618C19.6025 7.08074 19.176 8.38475 19.0476 8.70763C19.8424 9.60367 20.3221 10.7475 20.3221 12.1466C20.3221 17.0699 17.4193 18.1536 14.657 18.4715C15.1029 18.8694 15.5003 19.6479 15.5003 20.8442C15.5003 22.5562 15.4833 23.9378 15.4833 24.3608C15.4833 24.7012 15.7086 25.1017 16.3362 24.9766C21.2598 23.2771 24.812 18.474 24.812 12.8149C24.812 5.73667 19.2584 0 12.406 0Z" fill="#F44336"/>
</svg>
