<svg width="29" height="25" viewBox="0 0 29 25" fill="none" xmlns="http://www.w3.org/2000/svg">
<path d="M28.6889 2.95927C27.6333 3.46069 26.4987 3.8006 25.3083 3.95287C26.5231 3.17153 27.4568 1.93491 27.8957 0.461425C26.7583 1.18432 25.499 1.71035 24.1579 1.99336C23.0851 0.765965 21.5561 0 19.8636 0C16.6135 0 13.9787 2.82546 13.9787 6.31075C13.9787 6.80602 14.0303 7.28744 14.1307 7.74886C9.23977 7.48585 4.90244 4.97416 1.99942 1.1551C1.49311 2.08718 1.20195 3.17153 1.20195 4.32817C1.20195 6.5184 2.24038 8.45023 3.81955 9.58072C2.85426 9.54842 1.94778 9.26387 1.15318 8.79168C1.15318 8.81783 1.15318 8.84398 1.15318 8.87166C1.15318 11.9294 3.18128 14.4795 5.87347 15.0594C5.38007 15.2039 4.85942 15.2809 4.32299 15.2809C3.94433 15.2809 3.57572 15.2409 3.21571 15.167C3.96441 17.6741 6.13881 19.4983 8.71339 19.549C6.69963 21.2425 4.16091 22.2514 1.40418 22.2514C0.929428 22.2514 0.460411 22.2222 0 22.1638C2.60469 23.9541 5.69848 25 9.02176 25C19.8464 25 25.7672 15.3839 25.7672 7.04288C25.7672 6.7691 25.7615 6.49686 25.75 6.22616C26.9018 5.33715 27.9 4.22511 28.6889 2.95927Z" fill="#F44336"/>
</svg>
